<?xml version="1.0" encoding="utf-8"?>
<!-- Generator: Adobe Illustrator 25.1.0, SVG Export Plug-In . SVG Version: 6.00 Build 0)  -->
<svg version="1.1" id="Layer_1" xmlns="http://www.w3.org/2000/svg" xmlns:xlink="http://www.w3.org/1999/xlink" x="0px" y="0px"
	 viewBox="0 0 270 110" style="enable-background:new 0 0 270 110;" xml:space="preserve">
<style type="text/css">
	.st0{fill:#FFFFFF;}
</style>
<g>
	<g>
		<path class="st0" d="M13.7,6.9v76.6h27.2v-7.6H21.2V14.5h61.4v11.7h7.6V6.9H13.7z"/>
	</g>
	<g>
		<path class="st0" d="M81.8,41c0-2.5,2-4.4,4.5-4.4s4.5,1.9,4.5,4.4c0,2.4-2,4.3-4.5,4.3S81.8,43.5,81.8,41z"/>
		<rect x="82.6" y="50.7" class="st0" width="7.6" height="32.7"/>
		<path class="st0" d="M94.8,67.6v-0.5c0-10.5,6.2-17.1,14.7-17.1c5.3,0,8.6,2.4,10.5,5.7V35.5h7.6v47.9h-7.6v-5.5
			c-1.7,3.3-5.9,6.1-10.8,6.1C101,84.1,94.8,78.2,94.8,67.6z M120.2,67.2v-0.5c0-7.2-3.3-10.8-8.8-10.8c-5.6,0-8.8,3.9-8.8,10.9v0.5
			c0,7.2,3.6,10.6,8.5,10.6C116.3,78,120.2,74.6,120.2,67.2z"/>
		<path class="st0" d="M133.8,71.7v-21h7.6v20.1c0,4.9,2.1,7.2,6.4,7.2c4.1,0,7.6-2.6,7.6-7.8V50.7h7.6v32.7h-7.6v-5.1
			c-1.6,3.2-5.1,5.8-10.4,5.8C138.6,84.1,133.8,80.4,133.8,71.7z"/>
		<path class="st0" d="M167.2,67.5V67c0-10.4,7.4-17,16.5-17c7.3,0,14.1,3.3,14.9,12.3h-7.3c-0.6-4.4-3.5-6.2-7.5-6.2
			c-5.2,0-8.9,4-8.9,10.8v0.5c0,7.1,3.5,10.9,9.1,10.9c4,0,7.4-2.4,7.9-7h6.9c-0.6,7.5-6.3,12.8-15.2,12.8
			C174.4,84.1,167.2,77.9,167.2,67.5z"/>
		<path class="st0" d="M202.3,41c0-2.5,2-4.4,4.5-4.4c2.5,0,4.5,1.9,4.5,4.4c0,2.4-2,4.3-4.5,4.3S202.3,43.5,202.3,41z"/>
		<rect x="203.1" y="50.7" class="st0" width="7.6" height="32.7"/>
		<path class="st0" d="M215,74.4c0-7.6,7.4-10.4,16.8-10.4h4.1v-1.7c0-4.4-1.5-6.6-5.9-6.6c-4,0-5.9,1.9-6.3,5.1h-7.3
			c0.6-7.6,6.7-10.8,14-10.8s13.1,3,13.1,11.9v21.5h-7.4v-4c-2.1,2.8-5,4.6-10,4.6C219.9,84.1,215,81.2,215,74.4z M235.8,72v-3.3
			H232c-5.8,0-9.5,1.3-9.5,5.3c0,2.7,1.5,4.6,5.3,4.6C232.4,78.6,235.8,76.2,235.8,72z"/>
		<path class="st0" d="M248.5,35.6h7.6v47.9h-7.6V35.6z"/>
	</g>
	<path class="st0" d="M66.4,44.8h12.9v-7.6H66.4c-8.3,0-15,6.7-15,15v31.3H59V66.4h12.9v-7.6H59v-6.5C59,48.2,62.3,44.8,66.4,44.8z"
		/>
	<g>
		<path class="st0" d="M133.6,98.5v-0.1c0-2.7,1.9-4.5,4.3-4.5c1.8,0,3.6,0.8,3.9,3.1h-1.4c-0.2-1.4-1.2-1.9-2.5-1.9
			c-1.6,0-2.9,1.3-2.9,3.4v0.1c0,2.2,1.2,3.3,2.9,3.3c1.3,0,2.4-0.7,2.5-2.2h1.3c-0.2,1.9-1.7,3.3-3.9,3.3
			C135.5,103,133.6,101.3,133.6,98.5z"/>
		<path class="st0" d="M142.6,98.5v-0.1c0-2.7,1.8-4.5,4.4-4.5c2.5,0,4.4,1.8,4.4,4.5v0.1c0,2.7-1.8,4.5-4.4,4.5
			C144.4,103,142.6,101.1,142.6,98.5z M149.9,98.5v-0.1c0-2.1-1.1-3.4-2.9-3.4s-2.9,1.3-2.9,3.4v0.1c0,2,1.1,3.3,2.9,3.3
			C148.7,101.9,149.9,100.5,149.9,98.5z"/>
		<path class="st0" d="M152.8,94h1.4v1.4c0.4-0.8,1.4-1.5,2.6-1.5c1.1,0,2.1,0.5,2.6,1.7c0.6-1.2,1.9-1.7,3-1.7c1.6,0,3,1,3,3.5v5.5
			h-1.4v-5.6c0-1.6-0.7-2.2-1.9-2.2c-1.2,0-2.3,0.8-2.3,2.4v5.4h-1.4v-5.6c0-1.6-0.7-2.2-1.9-2.2c-1.2,0-2.3,0.8-2.3,2.4v5.4h-1.4
			V94z"/>
		<path class="st0" d="M167.6,94h1.4v1.4c0.4-0.8,1.4-1.5,2.6-1.5c1.1,0,2.1,0.5,2.6,1.7c0.6-1.2,1.9-1.7,3-1.7c1.6,0,3,1,3,3.5v5.5
			h-1.4v-5.6c0-1.6-0.7-2.2-1.9-2.2c-1.2,0-2.3,0.8-2.3,2.4v5.4h-1.4v-5.6c0-1.6-0.7-2.2-1.9-2.2c-1.2,0-2.3,0.8-2.3,2.4v5.4h-1.4
			V94z"/>
		<path class="st0" d="M182.2,99.6V94h1.4v5.5c0,1.6,0.7,2.3,2.1,2.3c1.3,0,2.4-0.8,2.4-2.4v-5.4h1.4v8.9h-1.4v-1.4
			c-0.4,0.8-1.4,1.6-2.8,1.6C183.6,103,182.2,102.1,182.2,99.6z"/>
		<path class="st0" d="M191.7,94h1.4v1.4c0.4-0.8,1.4-1.6,2.9-1.6c1.8,0,3.1,1,3.1,3.6v5.4h-1.4v-5.5c0-1.6-0.7-2.3-2.1-2.3
			c-1.3,0-2.5,0.8-2.5,2.4v5.4h-1.4V94z"/>
		<path class="st0" d="M201,91.2c0-0.5,0.4-0.9,0.9-0.9c0.5,0,0.9,0.4,0.9,0.9s-0.4,0.9-0.9,0.9S201,91.7,201,91.2z M201.2,94h1.4
			v8.9h-1.4V94z"/>
		<path class="st0" d="M204.2,98.5v-0.1c0-2.7,1.9-4.5,4.3-4.5c1.8,0,3.6,0.8,3.9,3.1H211c-0.2-1.4-1.2-1.9-2.5-1.9
			c-1.6,0-2.9,1.3-2.9,3.4v0.1c0,2.2,1.2,3.3,2.9,3.3c1.3,0,2.4-0.7,2.5-2.2h1.3c-0.2,1.9-1.7,3.3-3.9,3.3
			C206.1,103,204.2,101.3,204.2,98.5z"/>
		<path class="st0" d="M213.1,100.4c0-2.1,2.2-2.7,4.4-2.7h1.3V97c0-1.4-0.5-2-1.9-2c-1.2,0-1.9,0.5-2,1.6h-1.4
			c0.2-2,1.8-2.8,3.5-2.8c1.7,0,3.2,0.7,3.2,3.2v5.9h-1.4v-1.1c-0.7,0.8-1.5,1.3-2.8,1.3C214.4,103,213.1,102.2,213.1,100.4z
			 M218.8,99.8v-1.1h-1.2c-1.8,0-3.1,0.4-3.1,1.7c0,0.9,0.4,1.5,1.7,1.5C217.7,101.9,218.8,101.1,218.8,99.8z"/>
		<path class="st0" d="M222.6,100.7v-5.4h-1.3V94h1.3v-2h1.4v2h2.1v1.2H224v5.3c0,0.9,0.4,1.3,1.1,1.3c0.4,0,0.8-0.1,1.1-0.2v1.2
			c-0.3,0.1-0.6,0.2-1.2,0.2C223.4,103,222.6,102,222.6,100.7z"/>
		<path class="st0" d="M227.4,91.2c0-0.5,0.4-0.9,0.9-0.9c0.5,0,0.9,0.4,0.9,0.9s-0.4,0.9-0.9,0.9C227.9,92.1,227.4,91.7,227.4,91.2
			z M227.7,94h1.4v8.9h-1.4V94z"/>
		<path class="st0" d="M230.7,98.5v-0.1c0-2.7,1.8-4.5,4.4-4.5c2.5,0,4.4,1.8,4.4,4.5v0.1c0,2.7-1.8,4.5-4.4,4.5
			C232.5,103,230.7,101.1,230.7,98.5z M237.9,98.5v-0.1c0-2.1-1.1-3.4-2.9-3.4c-1.8,0-2.9,1.3-2.9,3.4v0.1c0,2,1.1,3.3,2.9,3.3
			C236.8,101.9,237.9,100.5,237.9,98.5z"/>
		<path class="st0" d="M240.9,94h1.4v1.4c0.4-0.8,1.4-1.6,2.9-1.6c1.8,0,3.1,1,3.1,3.6v5.4h-1.4v-5.5c0-1.6-0.7-2.3-2.1-2.3
			c-1.3,0-2.5,0.8-2.5,2.4v5.4h-1.4V94z"/>
		<path class="st0" d="M249.6,100.1h1.4c0.1,1.1,0.7,1.7,2.1,1.7c1.3,0,1.9-0.5,1.9-1.4c0-0.9-0.7-1.2-2.1-1.5
			c-2.3-0.4-3.1-1.1-3.1-2.6c0-1.6,1.6-2.5,3-2.5c1.6,0,3,0.6,3.2,2.6h-1.4c-0.2-1-0.7-1.4-1.9-1.4c-1,0-1.7,0.5-1.7,1.3
			c0,0.8,0.4,1.1,2.1,1.4c1.8,0.3,3.1,0.7,3.1,2.6c0,1.6-1.1,2.7-3.3,2.7C251,103,249.7,102,249.6,100.1z"/>
	</g>
</g>
</svg>
